<svg width="624" height="336" viewBox="0 0 624 336" fill="none" xmlns="http://www.w3.org/2000/svg">
<g clip-path="url(#clip0_29_433)">
<path d="M362.922 103.64H254.133V212.307H362.922V103.64Z" fill="#9F0C19"/>
<path opacity="0.75" d="M432.937 177.535H362.922V247.471H432.937V177.535Z" fill="#ED1B2E"/>
<path opacity="0.55" d="M303.058 73.7273H273.112V103.64H303.058V73.7273Z" fill="#8A8A8A"/>
<path opacity="0.55" d="M199.752 190.539H169.806V220.452H199.752V190.539Z" fill="#8A8A8A"/>
<path opacity="0.55" d="M446.658 108.021H416.712V137.933H446.658V108.021Z" fill="#8A8A8A"/>
<path opacity="0.75" d="M254.133 103.64H196.153V161.554H254.133V103.64Z" fill="#ED1B2E"/>
<path opacity="0.85" d="M273.112 51.7636H221.178V103.64H273.112V51.7636Z" fill="#BE1524"/>
<path opacity="0.85" d="M362.922 212.054H317.005V257.919H362.922V212.054Z" fill="#BE1524"/>
<path opacity="0.85" d="M217.579 117.205H150.967V183.743H217.579V117.205Z" fill="#BE1524"/>
<path opacity="0.55" d="M417.303 83.5857H362.922V137.905H417.303V83.5857Z" fill="#C1C1C1"/>
<path opacity="0.55" d="M254.105 190.539H199.724V244.859H254.105V190.539Z" fill="#C1C1C1"/>
<path opacity="0.55" d="M254.133 161.554H225.143V190.511H254.133V161.554Z" fill="#8A8A8A"/>
<path opacity="0.55" d="M402.569 137.905H362.922V177.507H402.569V137.905Z" fill="#8A8A8A"/>
<path opacity="0.75" d="M316.949 211.941H241.479V287.326H316.949V211.941Z" fill="#ED1B2E"/>
<path opacity="0.55" d="M404.622 247.302H333.37V318.474H404.622V247.302Z" fill="#8A8A8A"/>
<path opacity="0.55" d="M390.506 16.3183H360.56V46.2305H390.506V16.3183Z" fill="#8A8A8A"/>
<path opacity="0.55" d="M523.758 0H473.568V50.1346H523.758V0Z" fill="#C1C1C1"/>
<path opacity="0.85" d="M136.711 259.239H89.3597V306.537H136.711V259.239Z" fill="#BE1524"/>
<path opacity="0.55" d="M199.752 39.4055H177.96V61.1726H199.752V39.4055Z" fill="#8A8A8A"/>
<path opacity="0.75" d="M570.688 161.442H548.896V183.209H570.688V161.442Z" fill="#ED1B2E"/>
<path opacity="0.55" d="M25.8688 97.1516H0V122.991H25.8688V97.1516Z" fill="#8A8A8A"/>
<path opacity="0.85" d="M476.407 278.142H454.616V299.909H476.407V278.142Z" fill="#BE1524"/>
<path opacity="0.75" d="M257.929 321.395H243.307V336H257.929V321.395Z" fill="#ED1B2E"/>
<path opacity="0.55" d="M588.571 307.464H573.95V322.069H588.571V307.464Z" fill="#C1C1C1"/>
<path opacity="0.55" d="M473.82 152.398H462.686V163.52H473.82V152.398Z" fill="#C1C1C1"/>
<path opacity="0.35" d="M32.0829 20.1381H20.9481V31.2604H32.0829V20.1381Z" fill="#BE1524"/>
<path opacity="0.55" d="M113.035 72.1264H101.901V83.2487H113.035V72.1264Z" fill="#C1C1C1"/>
<path opacity="0.55" d="M532.419 88.4728H515.098V105.774H532.419V88.4728Z" fill="#8A8A8A"/>
<path d="M388.313 152.173H377.178V163.296H388.313V152.173Z" fill="white"/>
<path d="M565.374 166.75H554.239V177.872H565.374V166.75Z" fill="white"/>
<path d="M293.639 83.1364H282.504V94.2586H293.639V83.1364Z" fill="white"/>
<path d="M471.065 283.45H459.93V294.572H471.065V283.45Z" fill="white"/>
<path d="M18.5018 104.482H7.367V115.604H18.5018V104.482Z" fill="white"/>
<path d="M190.332 199.92H179.198V211.043H190.332V199.92Z" fill="white"/>
<path d="M345.517 229.411H334.382V240.534H345.517V229.411Z" fill="white"/>
<path d="M395.68 105.184H384.545V116.307H395.68V105.184Z" fill="white"/>
<path opacity="0.35" d="M624 64.9643H612.865V76.0866H624V64.9643Z" fill="#BE1524"/>
<path opacity="0.55" d="M26.5156 317.575H15.3807V328.697H26.5156V317.575Z" fill="#8A8A8A"/>
<path opacity="0.55" d="M477.504 202.757H432.937V247.274H477.504V202.757Z" fill="#8A8A8A"/>
<path opacity="0.35" d="M289.562 0H274.603V14.9421H289.562V0Z" fill="#BE1524"/>
<path opacity="0.75" d="M85.7044 185.147H70.7455V200.089H85.7044V185.147Z" fill="#ED1B2E"/>
<path opacity="0.85" d="M422.139 157.959H402.569V177.507H422.139V157.959Z" fill="#BE1524"/>
<path opacity="0.75" d="M369.361 37.4113H303.058V103.64H369.361V37.4113Z" fill="#ED1B2E"/>
<path d="M289.758 161.245H294.904V156.779C294.904 155.431 296.001 154.364 297.322 154.364C298.672 154.364 299.74 155.459 299.74 156.779V161.273H308.794V152.286C308.794 150.937 309.863 149.87 311.213 149.87C312.562 149.87 313.631 150.937 313.631 152.286V161.273H322.657V156.779C322.657 155.431 323.753 154.364 325.075 154.364C326.425 154.364 327.493 155.459 327.493 156.779V161.301H329.546C336.8 161.301 342.677 155.431 342.677 148.185C342.677 140.939 336.8 135.068 329.546 135.068C328.927 135.068 328.337 135.125 327.746 135.209C325.384 129.339 319.62 125.182 312.9 125.182C307.332 125.182 302.44 128.019 299.572 132.316C299.094 132.232 298.616 132.204 298.11 132.204C292.88 132.204 288.577 136.22 288.099 141.332C283.319 142.09 279.664 146.247 279.664 151.218C279.692 156.751 284.191 161.245 289.758 161.245Z" fill="white"/>
<path d="M316.583 172.115H313.265V173.996H316.583C317.483 173.996 318.242 174.727 318.242 175.654V183.771C318.242 184.669 317.511 185.428 316.583 185.428H305.786C304.886 185.428 304.127 184.697 304.127 183.771V175.654C304.127 174.755 304.858 173.996 305.786 173.996H309.244V172.115H305.786C303.846 172.115 302.243 173.688 302.243 175.654V183.771C302.243 185.709 303.818 187.31 305.786 187.31H310.257V188.882H308.12C307.585 188.882 307.164 189.304 307.164 189.837C307.164 190.371 307.585 190.792 308.12 190.792H314.418C314.952 190.792 315.374 190.371 315.374 189.837C315.374 189.304 314.952 188.882 314.418 188.882H312.141V187.31H316.611C318.552 187.31 320.154 185.737 320.154 183.771V175.654C320.126 173.688 318.523 172.115 316.583 172.115Z" fill="white"/>
<path d="M340.09 172.143H332.414C331.177 172.143 330.136 173.154 330.136 174.418V174.474L332.245 175.513V175.26H340.259V178.799C340.315 179.024 340.343 179.277 340.371 179.53C340.399 179.895 340.343 180.288 340.259 180.625V186.186H332.245V180.597C332.189 180.372 332.161 180.147 332.133 179.923L330.136 178.94V187.759C330.136 188.995 331.148 190.034 332.414 190.034H340.09C341.327 190.034 342.368 189.023 342.368 187.759V174.39C342.368 173.154 341.327 172.143 340.09 172.143ZM338.15 174.137H334.354C334.157 174.137 334.017 173.996 334.017 173.8C334.017 173.603 334.157 173.463 334.354 173.463H338.15C338.347 173.463 338.487 173.603 338.487 173.8C338.487 173.996 338.319 174.137 338.15 174.137ZM334.354 188.433H332.92C332.723 188.433 332.583 188.293 332.583 188.096C332.583 187.899 332.723 187.759 332.92 187.759H334.354C334.551 187.759 334.691 187.899 334.691 188.096C334.691 188.293 334.523 188.433 334.354 188.433ZM336.238 188.995C335.76 188.995 335.366 188.602 335.366 188.124C335.366 187.647 335.76 187.253 336.238 187.253C336.716 187.253 337.11 187.647 337.11 188.124C337.138 188.602 336.744 188.995 336.238 188.995ZM339.584 188.433H338.15C337.953 188.433 337.813 188.293 337.813 188.096C337.813 187.899 337.953 187.759 338.15 187.759H339.584C339.781 187.759 339.921 187.899 339.921 188.096C339.893 188.293 339.753 188.433 339.584 188.433Z" fill="white"/>
<path d="M336.238 180.962C335.535 180.962 334.944 180.4 334.944 179.67C334.944 178.94 335.507 178.378 336.238 178.378C336.941 178.378 337.531 178.94 337.531 179.67C337.531 180.4 336.941 180.962 336.238 180.962ZM336.378 176.805C335.479 176.777 334.663 177.142 334.101 177.76L325.918 173.744V156.779C325.918 156.33 325.553 155.965 325.103 155.965C324.653 155.965 324.288 156.33 324.288 156.779V174.727L333.398 179.192C333.37 179.361 333.342 179.53 333.342 179.698C333.342 181.299 334.635 182.591 336.238 182.591C337.869 182.591 339.218 181.215 339.134 179.558C339.078 178.069 337.841 176.861 336.378 176.805ZM311.241 180.962C310.538 180.962 309.947 180.4 309.947 179.67C309.947 178.94 310.51 178.378 311.241 178.378C311.944 178.378 312.534 178.94 312.534 179.67C312.534 180.4 311.944 180.962 311.241 180.962ZM312.056 176.917L312.028 152.286C312.028 151.836 311.663 151.471 311.213 151.471C310.763 151.471 310.397 151.836 310.397 152.286L310.425 176.917C309.216 177.255 308.345 178.378 308.345 179.67C308.345 181.215 309.582 182.507 311.1 182.591C312.759 182.675 314.137 181.355 314.137 179.698C314.137 178.378 313.265 177.255 312.056 176.917Z" fill="white"/>
<path d="M293.723 178.378V188.405H278.596V177.929L286.159 173.435L290.04 175.738L291.755 174.839L286.159 171.441L274.322 178.659L275.306 179.895L277.049 178.855V189.95H295.298V178.855L297.041 179.895L297.997 178.659L295.776 177.311L293.723 178.378Z" fill="white"/>
<path d="M298.11 156.779C298.11 156.33 297.744 155.965 297.294 155.965C296.844 155.965 296.479 156.33 296.479 156.779V173.744L288.437 177.929C287.903 177.226 287.059 176.805 286.131 176.805C284.613 176.833 283.347 178.041 283.263 179.558C283.179 181.215 284.5 182.591 286.159 182.591C287.762 182.591 289.055 181.299 289.055 179.698C289.055 179.614 289.055 179.53 289.055 179.445L298.11 174.727V156.779ZM286.159 180.962C285.456 180.962 284.866 180.4 284.866 179.67C284.866 178.968 285.428 178.378 286.159 178.378C286.89 178.378 287.453 178.94 287.453 179.67C287.453 180.4 286.862 180.962 286.159 180.962Z" fill="white"/>
<path d="M244.179 79.5132V81.4511H250.252V79.5132H244.179ZM249.493 80.8051H247.778V80.1591H249.493V80.8051Z" fill="white"/>
<path d="M244.179 76.7326V78.6706H250.252V76.7326H244.179ZM249.493 78.0246H247.778V77.3786H249.493V78.0246Z" fill="white"/>
<path d="M244.179 73.9801V75.9181H250.252V73.9801H244.179ZM249.493 75.244H247.778V74.598H249.493V75.244Z" fill="white"/>
<path d="M254.695 74.6261L254.161 73.3622L255.454 72.3792C254.695 71.2276 253.711 70.2165 252.558 69.4581L251.574 70.7501L250.309 70.2165L249.043 69.6828L249.268 68.0538C248.593 67.9134 247.919 67.8291 247.187 67.8291C246.485 67.8291 245.81 67.9134 245.135 68.0538L245.36 69.6828L244.094 70.2165L242.829 70.7501L241.845 69.4581C240.692 70.2165 239.68 71.1995 238.921 72.3511L240.214 73.3341L239.68 74.598L239.146 75.8619L237.515 75.6372C237.374 76.3113 237.29 76.9854 237.29 77.7156C237.29 78.4178 237.374 79.0918 237.515 79.7659L239.146 79.5412L239.68 80.8051L240.214 82.069L238.921 83.0521C239.68 84.2036 240.664 85.2147 241.817 85.9731L242.801 84.6811L244.066 85.2147L245.332 85.7484L245.107 87.3774C245.782 87.5178 246.456 87.6021 247.187 87.6021C247.89 87.6021 248.565 87.5178 249.24 87.3774L249.015 85.7484L250.28 85.2147L251.546 84.6811L252.53 85.9731C253.683 85.2147 254.695 84.2317 255.454 83.0801L254.161 82.0971L254.695 80.8332L255.229 79.5693L256.86 79.794C257.001 79.1199 257.085 78.4459 257.085 77.7156C257.085 77.0134 257.001 76.3394 256.86 75.6653L255.229 75.89L254.695 74.6261ZM247.216 83.7823C243.841 83.7823 241.114 81.0579 241.114 77.6875C241.114 74.3171 243.841 71.5927 247.216 71.5927C250.59 71.5927 253.317 74.3171 253.317 77.6875C253.289 81.0579 250.562 83.7823 247.216 83.7823Z" fill="white"/>
<path d="M255.061 70.4412L254.358 69.7671L256.607 67.5202H261.303V68.5032H257.001L255.061 70.4412Z" fill="white"/>
<path d="M262.287 69.5705C261.415 69.5705 260.712 68.8683 260.712 67.9977C260.712 67.127 261.415 66.4248 262.287 66.4248C263.159 66.4248 263.862 67.127 263.862 67.9977C263.862 68.8683 263.159 69.5705 262.287 69.5705ZM262.287 67.4078C261.978 67.4078 261.696 67.6606 261.696 67.9977C261.696 68.3066 261.95 68.5875 262.287 68.5875C262.624 68.5875 262.877 68.3347 262.877 67.9977C262.877 67.6887 262.624 67.4078 262.287 67.4078Z" fill="white"/>
<path d="M239.258 70.4412L237.29 68.5032H233.016V67.5202H237.712L239.961 69.7671L239.258 70.4412Z" fill="white"/>
<path d="M232.004 69.5705C231.132 69.5705 230.429 68.8683 230.429 67.9977C230.429 67.127 231.132 66.4248 232.004 66.4248C232.875 66.4248 233.578 67.127 233.578 67.9977C233.578 68.8683 232.875 69.5705 232.004 69.5705ZM232.004 67.4078C231.694 67.4078 231.413 67.6606 231.413 67.9977C231.413 68.3066 231.666 68.5875 232.004 68.5875C232.341 68.5875 232.594 68.3347 232.594 67.9977C232.594 67.6887 232.341 67.4078 232.004 67.4078Z" fill="white"/>
<path d="M261.303 87.883H256.607L254.358 85.636L255.061 84.9619L257.001 86.8999H261.303V87.883Z" fill="white"/>
<path d="M262.287 88.9503C261.415 88.9503 260.712 88.2481 260.712 87.3774C260.712 86.5067 261.415 85.8046 262.287 85.8046C263.159 85.8046 263.862 86.5067 263.862 87.3774C263.862 88.2762 263.159 88.9503 262.287 88.9503ZM262.287 86.8157C261.978 86.8157 261.696 87.0685 261.696 87.4055C261.696 87.7425 261.95 87.9953 262.287 87.9953C262.624 87.9953 262.877 87.7425 262.877 87.4055C262.877 87.0685 262.624 86.8157 262.287 86.8157Z" fill="white"/>
<path d="M237.712 87.883H233.016V86.8999H237.29L239.258 84.9619L239.961 85.636L237.712 87.883Z" fill="white"/>
<path d="M232.004 88.9503C231.132 88.9503 230.429 88.2481 230.429 87.3774C230.429 86.5067 231.132 85.8046 232.004 85.8046C232.875 85.8046 233.578 86.5067 233.578 87.3774C233.578 88.2762 232.875 88.9503 232.004 88.9503ZM232.004 86.8157C231.694 86.8157 231.413 87.0685 231.413 87.4055C231.413 87.7425 231.666 87.9953 232.004 87.9953C232.341 87.9953 232.594 87.7425 232.594 87.4055C232.594 87.0685 232.341 86.8157 232.004 86.8157Z" fill="white"/>
<path d="M262.287 79.2604C261.415 79.2604 260.712 78.5582 260.712 77.6875C260.712 76.8169 261.415 76.1147 262.287 76.1147C263.159 76.1147 263.862 76.8169 263.862 77.6875C263.862 78.5582 263.159 79.2604 262.287 79.2604ZM262.287 77.1258C261.978 77.1258 261.696 77.3786 261.696 77.7156C261.696 78.0246 261.95 78.3054 262.287 78.3054C262.624 78.3054 262.877 78.0527 262.877 77.7156C262.877 77.3786 262.624 77.1258 262.287 77.1258Z" fill="white"/>
<path d="M261.218 77.2101H257.844V78.1931H261.218V77.2101Z" fill="white"/>
<path d="M247.159 64.1498C246.288 64.1498 245.585 63.4476 245.585 62.5769C245.585 61.7063 246.288 61.0041 247.159 61.0041C248.031 61.0041 248.734 61.7063 248.734 62.5769C248.706 63.4476 248.031 64.1498 247.159 64.1498ZM247.159 61.9871C246.85 61.9871 246.569 62.2399 246.569 62.5769C246.569 62.8859 246.822 63.1668 247.159 63.1668C247.469 63.1668 247.75 62.914 247.75 62.5769C247.75 62.268 247.469 61.9871 247.159 61.9871Z" fill="white"/>
<path d="M247.637 63.6442H246.653V67.0146H247.637V63.6442Z" fill="white"/>
<path d="M232.004 79.2604C231.132 79.2604 230.429 78.5582 230.429 77.6875C230.429 76.8169 231.132 76.1147 232.004 76.1147C232.875 76.1147 233.578 76.8169 233.578 77.6875C233.578 78.5582 232.875 79.2604 232.004 79.2604ZM232.004 77.1258C231.694 77.1258 231.413 77.3786 231.413 77.7156C231.413 78.0246 231.666 78.3054 232.004 78.3054C232.341 78.3054 232.594 78.0527 232.594 77.7156C232.594 77.3786 232.341 77.1258 232.004 77.1258Z" fill="white"/>
<path d="M236.474 77.2101H233.1V78.1931H236.474V77.2101Z" fill="white"/>
<path d="M247.159 94.3991C246.288 94.3991 245.585 93.6969 245.585 92.8262C245.585 91.9555 246.288 91.2534 247.159 91.2534C248.031 91.2534 248.734 91.9555 248.734 92.8262C248.706 93.6969 248.031 94.3991 247.159 94.3991ZM247.159 92.2364C246.85 92.2364 246.569 92.4892 246.569 92.8262C246.569 93.1352 246.822 93.416 247.159 93.416C247.469 93.416 247.75 93.1632 247.75 92.8262C247.75 92.5173 247.469 92.2364 247.159 92.2364Z" fill="white"/>
<path d="M247.637 88.3885H246.653V91.7589H247.637V88.3885Z" fill="white"/>
<path d="M334.973 86.8438C333.51 86.8438 332.301 85.636 332.301 84.1755C332.301 82.715 333.51 81.5073 334.973 81.5073C336.435 81.5073 337.644 82.715 337.644 84.1755C337.644 85.6641 336.435 86.8438 334.973 86.8438ZM334.973 82.9959C334.326 82.9959 333.764 83.5295 333.764 84.2036C333.764 84.8496 334.298 85.4113 334.973 85.4113C335.647 85.4113 336.182 84.8777 336.182 84.2036C336.154 83.5295 335.619 82.9959 334.973 82.9959Z" fill="white"/>
<path d="M344.111 84.5687C342.649 84.5687 341.44 83.361 341.44 81.9005C341.44 80.44 342.649 79.2323 344.111 79.2323C345.573 79.2323 346.782 80.44 346.782 81.9005C346.782 83.361 345.573 84.5687 344.111 84.5687ZM344.111 80.6928C343.464 80.6928 342.902 81.2264 342.902 81.9005C342.902 82.5465 343.436 83.1082 344.111 83.1082C344.786 83.1082 345.32 82.5746 345.32 81.9005C345.292 81.2264 344.758 80.6928 344.111 80.6928Z" fill="white"/>
<path d="M344.589 59.2066C344.28 59.2066 343.942 59.2346 343.633 59.2908C342.396 56.2294 339.387 54.0386 335.872 54.0386C332.976 54.0386 330.417 55.5272 328.899 57.7741C328.646 57.7461 328.393 57.718 328.14 57.718C325.384 57.718 323.135 59.8245 322.91 62.4927C320.407 62.8859 318.495 65.0486 318.495 67.6606C318.495 70.5535 320.857 72.9128 323.753 72.9128H329.349V65.7788H332.526H333.398H336.575H337.447H340.624V72.9409H344.617C348.413 72.9409 351.478 69.8795 351.478 66.0878C351.45 62.2961 348.385 59.2066 344.589 59.2066Z" fill="white"/>
<path d="M335.704 82.4903H334.213V66.6214H335.704V82.4903ZM342.902 80.103L339.528 76.7326V66.5933H338.037V77.3224L341.833 81.1141L342.902 80.103ZM328.084 81.1703L331.88 77.3786V66.6495H330.389V76.7888L327.015 80.1592L328.084 81.1703Z" fill="white"/>
<path d="M323.163 81.8724C323.163 80.4119 324.372 79.2042 325.834 79.2042C327.296 79.2042 328.505 80.4119 328.505 81.8724C328.505 83.3329 327.296 84.5407 325.834 84.5407C324.372 84.5407 323.163 83.361 323.163 81.8724ZM324.625 81.8724C324.625 82.5184 325.159 83.0802 325.834 83.0802C326.509 83.0802 327.043 82.5465 327.043 81.8724C327.043 81.2265 326.509 80.6647 325.834 80.6647C325.159 80.6647 324.625 81.2265 324.625 81.8724Z" fill="white"/>
<path d="M117.815 287.523C117.647 287.523 117.506 287.551 117.337 287.551C116.719 286.034 115.229 284.939 113.485 284.939C112.051 284.939 110.758 285.669 110.027 286.792C109.914 286.764 109.774 286.764 109.633 286.764C108.283 286.764 107.159 287.803 107.018 289.123C105.781 289.32 104.825 290.387 104.825 291.707C104.825 293.14 106.006 294.319 107.44 294.319H110.223H115.819H117.787C119.671 294.319 121.19 292.803 121.19 290.921C121.218 289.039 119.699 287.523 117.815 287.523Z" fill="white"/>
<path d="M113.57 274.518H112.473V283.253H113.57V274.518Z" fill="white"/>
<path d="M117.9 285.332L117.141 284.545L122.371 279.321H126.279V280.445H122.82L117.9 285.332Z" fill="white"/>
<path d="M127.741 281.793C126.729 281.793 125.913 280.978 125.913 279.967C125.913 278.956 126.729 278.142 127.741 278.142C128.753 278.142 129.569 278.956 129.569 279.967C129.541 280.978 128.725 281.793 127.741 281.793ZM127.741 279.265C127.347 279.265 127.038 279.574 127.038 279.967C127.038 280.36 127.347 280.669 127.741 280.669C128.135 280.669 128.444 280.36 128.444 279.967C128.444 279.574 128.107 279.265 127.741 279.265Z" fill="white"/>
<path d="M108.171 285.332L103.25 280.445H99.7916V279.321H103.728L108.93 284.545L108.171 285.332Z" fill="white"/>
<path d="M98.3576 281.793C97.3453 281.793 96.5299 280.978 96.5299 279.967C96.5299 278.956 97.3453 278.142 98.3576 278.142C99.3699 278.142 100.185 278.956 100.185 279.967C100.157 280.978 99.3417 281.793 98.3576 281.793ZM98.3576 279.265C97.9639 279.265 97.6546 279.574 97.6546 279.967C97.6546 280.36 97.9639 280.669 98.3576 280.669C98.7512 280.669 99.0605 280.36 99.0605 279.967C99.0605 279.574 98.7231 279.265 98.3576 279.265Z" fill="white"/>
<path d="M113.035 275.052C112.023 275.052 111.208 274.238 111.208 273.226C111.208 272.215 112.023 271.401 113.035 271.401C114.048 271.401 114.863 272.215 114.863 273.226C114.863 274.266 114.048 275.052 113.035 275.052ZM113.035 272.552C112.642 272.552 112.332 272.861 112.332 273.255C112.332 273.648 112.642 273.957 113.035 273.957C113.429 273.957 113.738 273.648 113.738 273.255C113.738 272.861 113.429 272.552 113.035 272.552Z" fill="white"/>
<path d="M191.063 132.372H177.482C176.105 132.372 174.98 133.496 174.98 134.872V143.157C174.98 144.534 176.105 145.657 177.482 145.657H191.063C192.441 145.657 193.566 144.534 193.566 143.157V134.872C193.566 133.496 192.441 132.372 191.063 132.372ZM180.013 140.714C179.085 140.714 178.326 139.956 178.326 139.029C178.326 138.102 179.085 137.343 180.013 137.343C180.941 137.343 181.7 138.102 181.7 139.029C181.7 139.956 180.941 140.714 180.013 140.714ZM190.051 140.882H186.34V137.175H190.051V140.882Z" fill="white"/>
<path d="M171.859 160.374C172.252 160.374 172.646 160.515 172.955 160.824C175.964 163.829 179.985 165.514 184.259 165.514C188.533 165.514 192.554 163.857 195.562 160.824C196.153 160.234 197.137 160.234 197.756 160.824C198.346 161.414 198.346 162.397 197.756 163.015C194.156 166.61 189.348 168.604 184.259 168.604C179.169 168.604 174.361 166.61 170.762 163.015C170.172 162.425 170.172 161.442 170.762 160.824C171.071 160.515 171.465 160.374 171.859 160.374Z" fill="white"/>
<path d="M175.683 155.487C176.076 155.487 176.47 155.628 176.779 155.937C178.776 157.931 181.447 159.026 184.259 159.026C187.071 159.026 189.742 157.931 191.738 155.937C192.329 155.347 193.313 155.347 193.932 155.937C194.522 156.527 194.522 157.51 193.932 158.128C191.345 160.711 187.914 162.144 184.259 162.144C180.603 162.144 177.173 160.711 174.586 158.128C173.996 157.538 173.996 156.555 174.586 155.937C174.895 155.628 175.289 155.487 175.683 155.487Z" fill="white"/>
<path d="M179.507 150.628C179.9 150.628 180.294 150.769 180.603 151.078C181.588 152.061 182.909 152.594 184.287 152.594C185.693 152.594 186.986 152.061 187.97 151.078C188.561 150.488 189.545 150.488 190.164 151.078C190.754 151.668 190.754 152.651 190.164 153.269C188.589 154.841 186.508 155.684 184.287 155.684C182.066 155.684 179.985 154.813 178.41 153.24C177.82 152.651 177.82 151.668 178.41 151.05C178.72 150.769 179.113 150.628 179.507 150.628Z" fill="white"/>
<path d="M397.929 198.572C399.898 198.572 401.753 198.881 403.131 199.415C404.34 199.892 404.875 200.454 404.875 200.791C404.875 201.128 404.34 201.69 403.131 202.167C401.753 202.701 399.898 203.01 397.929 203.01C395.961 203.01 394.105 202.701 392.727 202.167C391.518 201.69 390.984 201.128 390.984 200.791C390.984 200.454 391.518 199.892 392.727 199.415C394.077 198.881 395.933 198.572 397.929 198.572ZM397.929 197.73C393.627 197.73 390.141 199.078 390.141 200.763C390.141 202.448 393.627 203.796 397.929 203.796C402.231 203.796 405.718 202.448 405.718 200.763C405.718 199.106 402.231 197.73 397.929 197.73Z" fill="white"/>
<path d="M397.929 201.55C399.886 201.55 401.472 201.197 401.472 200.763C401.472 200.329 399.886 199.977 397.929 199.977C395.973 199.977 394.387 200.329 394.387 200.763C394.387 201.197 395.973 201.55 397.929 201.55Z" fill="white"/>
<path d="M397.929 227.249C402.231 227.249 405.718 225.891 405.718 224.215C405.718 222.54 402.231 221.182 397.929 221.182C393.628 221.182 390.141 222.54 390.141 224.215C390.141 225.891 393.628 227.249 397.929 227.249Z" fill="white"/>
<path d="M397.929 203.824C393.627 203.824 390.141 202.476 390.141 200.791V224.243H405.746V200.791C405.718 202.448 402.231 203.824 397.929 203.824ZM402.063 210.565L399.926 210.088C398.604 209.779 397.226 209.779 395.905 210.088L393.768 210.565C392.84 210.762 392.053 209.891 392.362 208.992C393.177 206.717 395.342 205.088 397.901 205.088C400.46 205.088 402.625 206.717 403.441 208.992C403.778 209.891 402.963 210.762 402.063 210.565Z" fill="white"/>
<path d="M400.741 209.245C401.238 209.245 401.641 208.843 401.641 208.346C401.641 207.85 401.238 207.448 400.741 207.448C400.244 207.448 399.841 207.85 399.841 208.346C399.841 208.843 400.244 209.245 400.741 209.245Z" fill="white"/>
<path d="M395.118 207.448C394.611 207.448 394.218 207.841 394.218 208.346C394.218 208.852 394.611 209.245 395.118 209.245C395.624 209.245 396.017 208.852 396.017 208.346C396.017 207.841 395.596 207.448 395.118 207.448Z" fill="white"/>
<path d="M408.193 205.762L407.686 206.268C408.333 206.914 408.727 207.785 408.727 208.768C408.727 209.751 408.333 210.621 407.686 211.267L408.193 211.773C408.952 211.015 409.43 209.947 409.43 208.796C409.43 207.588 408.952 206.549 408.193 205.762Z" fill="white"/>
<path d="M413.844 208.768C413.844 206.38 412.888 204.246 411.314 202.673L410.807 203.179C412.242 204.611 413.141 206.577 413.141 208.768C413.141 210.959 412.242 212.925 410.807 214.357L411.314 214.863C412.86 213.29 413.844 211.127 413.844 208.768Z" fill="white"/>
<path d="M411.651 208.768C411.651 206.998 410.92 205.397 409.767 204.218L409.261 204.723C410.301 205.762 410.948 207.195 410.948 208.768C410.948 210.341 410.301 211.773 409.261 212.812L409.767 213.318C410.92 212.138 411.651 210.537 411.651 208.768Z" fill="white"/>
<path d="M412.945 201.044L412.438 201.549C414.294 203.403 415.447 205.959 415.447 208.768C415.447 211.576 414.294 214.132 412.438 215.986L412.945 216.492C414.913 214.525 416.15 211.773 416.15 208.768C416.15 205.762 414.913 203.01 412.945 201.044Z" fill="white"/>
<path d="M387.638 205.762L388.144 206.268C387.498 206.914 387.104 207.785 387.104 208.768C387.104 209.751 387.498 210.621 388.144 211.267L387.638 211.773C386.879 211.015 386.401 209.947 386.401 208.796C386.401 207.588 386.879 206.549 387.638 205.762Z" fill="white"/>
<path d="M382.014 208.768C382.014 206.38 382.97 204.246 384.545 202.673L385.051 203.179C383.617 204.611 382.717 206.577 382.717 208.768C382.717 210.959 383.617 212.925 385.051 214.357L384.545 214.863C382.97 213.29 382.014 211.127 382.014 208.768Z" fill="white"/>
<path d="M384.208 208.768C384.208 206.998 384.939 205.397 386.092 204.218L386.598 204.723C385.557 205.762 384.911 207.195 384.911 208.768C384.911 210.341 385.557 211.773 386.598 212.812L386.092 213.318C384.911 212.138 384.208 210.537 384.208 208.768Z" fill="white"/>
<path d="M382.914 201.044L383.42 201.549C381.565 203.403 380.412 205.959 380.412 208.768C380.412 211.576 381.565 214.132 383.42 215.986L382.914 216.492C380.946 214.525 379.709 211.773 379.709 208.768C379.709 205.762 380.918 203.01 382.914 201.044Z" fill="white"/>
<path d="M494.319 34.5184L491.31 37.5237C490.635 38.1978 489.707 38.591 488.751 38.591C487.795 38.591 486.867 38.2259 486.192 37.5237C485.518 36.8496 485.124 35.9228 485.124 34.9678C485.124 34.0129 485.49 33.086 486.192 32.4119L490.326 28.2832C490.41 28.1989 490.495 28.1147 490.579 28.0585C490.607 28.0304 490.635 28.0023 490.691 27.9743C490.691 27.9743 490.832 27.89 490.86 27.8619C490.916 27.8338 490.944 27.8057 491.001 27.7776C491.029 27.7496 491.085 27.7215 491.113 27.6934C491.169 27.6653 491.226 27.6372 491.31 27.6091L491.394 27.553C491.451 27.5249 491.535 27.4968 491.591 27.4687L491.647 27.4406C492.013 27.3002 492.378 27.244 492.744 27.244H492.828C492.885 27.244 492.941 27.244 493.025 27.244H493.11C493.166 27.244 493.222 27.244 493.306 27.2721C493.363 27.2721 493.391 27.2721 493.447 27.3002C493.503 27.3002 493.559 27.3283 493.616 27.3283C493.672 27.3283 493.728 27.3563 493.784 27.3563C493.841 27.3563 493.897 27.3844 493.953 27.4125C493.981 27.4125 494.009 27.4406 494.037 27.4406L494.15 27.4687C494.178 27.4687 494.234 27.4968 494.262 27.5249C494.319 27.553 494.375 27.581 494.459 27.6091C494.487 27.6372 494.515 27.6372 494.544 27.6653C494.628 27.7215 494.74 27.7776 494.825 27.8338C494.909 27.89 494.993 27.9462 495.078 28.0304L495.106 28.0585C495.19 28.1428 495.303 28.227 495.387 28.3113L495.415 28.3394L495.5 28.3956C495.556 28.4236 495.612 28.4517 495.64 28.4517L495.781 28.4798L495.921 28.5641C496.118 28.6483 496.343 28.7045 496.568 28.7045C496.99 28.7045 497.383 28.536 497.665 28.2551L497.805 28.1147C497.552 27.6372 497.243 27.244 496.877 26.8508C495.809 25.7835 494.375 25.1937 492.856 25.1937C491.338 25.1937 489.904 25.7835 488.836 26.8508L484.702 30.9795C484.59 31.0919 484.505 31.2042 484.365 31.3446C484.309 31.4008 484.28 31.457 484.224 31.5132C484.168 31.5693 484.14 31.6255 484.084 31.6817C482.453 33.9567 482.706 37.0462 484.674 39.0123C485.743 40.0796 487.177 40.6694 488.695 40.6694C490.213 40.6694 491.647 40.0796 492.716 39.0123L496.849 34.8836C496.737 34.8836 496.652 34.8836 496.54 34.8836C495.837 34.8555 495.078 34.7431 494.319 34.5184Z" fill="white"/>
<path d="M512.624 11.1504C511.555 10.0831 510.121 9.49327 508.603 9.49327C507.084 9.49327 505.65 10.0831 504.582 11.1504L500.448 15.2791C500.561 15.2791 500.645 15.2791 500.758 15.2791C501.545 15.2791 502.304 15.3915 503.035 15.6162L506.044 12.6109C506.719 11.9368 507.647 11.5436 508.603 11.5436C509.559 11.5436 510.487 11.9087 511.161 12.6109C511.836 13.285 512.23 14.2118 512.23 15.1668C512.23 16.1217 511.864 17.0486 511.161 17.7226L507 21.8795C506.859 22.0199 506.719 22.1322 506.55 22.2446C505.931 22.694 505.2 22.9187 504.441 22.9187C503.935 22.9187 503.429 22.8063 502.951 22.6097H502.923C502.838 22.5816 502.698 22.5255 502.529 22.4412L502.501 22.4131C502.332 22.3289 502.135 22.2165 501.967 22.0761L501.91 22.048L501.826 21.9356C501.742 21.8514 501.657 21.7952 501.573 21.739C501.32 21.5705 501.039 21.4863 500.73 21.4863C500.589 21.4863 500.448 21.5143 500.336 21.5424C500.083 21.5986 499.83 21.739 499.661 21.9356L499.52 22.0761C499.689 22.385 499.886 22.6659 500.111 22.9468C500.223 23.0872 500.336 23.1995 500.448 23.34C501.517 24.4073 502.951 24.9971 504.469 24.9971C505.988 24.9971 507.422 24.4073 508.49 23.34L512.624 19.2112C514.845 16.9643 514.845 13.3411 512.624 11.1504Z" fill="white"/>
<path d="M492.885 23.0872C493.672 23.0872 494.431 23.1995 495.162 23.4242L496.456 22.1322L498.143 20.447C498.227 20.3628 498.311 20.2785 498.396 20.2223C498.424 20.1943 498.452 20.1662 498.508 20.1381C498.508 20.1381 498.649 20.0538 498.677 20.0257C498.733 19.9976 498.761 19.9696 498.818 19.9415C498.846 19.9134 498.902 19.8853 498.93 19.8572C498.986 19.8291 499.042 19.801 499.127 19.773L499.211 19.7168C499.267 19.6887 499.352 19.6606 499.408 19.6325L499.492 19.6044C499.858 19.464 500.223 19.4078 500.589 19.4078H500.673C500.73 19.4078 500.786 19.4078 500.87 19.4078H500.955C501.011 19.4078 501.067 19.4078 501.151 19.4359C501.208 19.4359 501.236 19.4359 501.292 19.464C501.348 19.464 501.404 19.4921 501.461 19.4921C501.517 19.4921 501.573 19.5202 501.629 19.5202C501.686 19.5202 501.742 19.5483 501.798 19.5763C501.826 19.5763 501.854 19.6044 501.882 19.6044L501.995 19.6325C502.023 19.6325 502.079 19.6606 502.107 19.6887C502.164 19.7168 502.22 19.7449 502.304 19.773C502.332 19.801 502.36 19.801 502.389 19.8291C502.473 19.8853 502.585 19.9415 502.67 19.9976C502.754 20.0538 502.838 20.11 502.923 20.1943L502.951 20.2223C503.035 20.3066 503.148 20.3909 503.232 20.4751L503.26 20.5032L503.345 20.5594C503.401 20.5875 503.457 20.6156 503.485 20.6156L503.626 20.6436L503.766 20.7279C503.963 20.8122 504.188 20.8683 504.413 20.8683C504.835 20.8683 505.228 20.6998 505.51 20.4189L505.65 20.2785C505.397 19.801 505.088 19.4078 504.722 19.0146C504.132 18.4248 503.429 17.9754 502.67 17.7226L502.698 17.6945C502.079 17.4699 501.404 17.3294 500.73 17.3294C499.211 17.3294 497.777 17.9192 496.709 18.9865L496.681 19.0146L494.544 21.1492L492.575 23.1153C492.688 23.1153 492.8 23.0872 492.885 23.0872Z" fill="white"/>
<path d="M504.441 27.0193C503.654 27.0193 502.895 26.907 502.164 26.6823L499.155 29.6875C499.099 29.7437 499.071 29.7718 499.014 29.828C498.986 29.8561 498.958 29.8841 498.93 29.8841C498.846 29.9403 498.789 29.9965 498.705 30.0527C498.086 30.502 497.355 30.7267 496.596 30.7267C496.09 30.7267 495.584 30.6144 495.106 30.4178H495.078C494.993 30.3897 494.853 30.3335 494.684 30.2493L494.656 30.2212C494.487 30.1369 494.291 30.0246 494.122 29.8841L494.066 29.8561L493.981 29.7437C493.897 29.6594 493.812 29.6033 493.728 29.5471C493.475 29.3786 493.194 29.2943 492.885 29.2943C492.744 29.2943 492.603 29.3224 492.491 29.3505C492.238 29.4067 491.985 29.5471 491.816 29.7437L491.675 29.8841C491.844 30.1931 492.041 30.474 492.266 30.7548C492.378 30.8953 492.491 31.0076 492.603 31.148C492.997 31.5413 493.419 31.8502 493.869 32.103L493.841 32.1311C494.684 32.5805 495.612 32.8332 496.596 32.8332C498.115 32.8332 499.549 32.2434 500.617 31.1761L500.645 31.148L502.951 28.8449L504.779 27.0193C504.666 27.0193 504.554 27.0193 504.441 27.0193Z" fill="white"/>
<path d="M299.572 246.348L290.49 255.42L282.392 246.291L299.572 246.348Z" fill="white"/>
<path d="M294.96 232.248H272.438V240.14H294.96V232.248Z" fill="white"/>
<path d="M294.932 232.248H287.031V250.87H294.932V232.248Z" fill="white"/>
<path d="M258.857 252.892L267.939 243.82L276.037 252.948L258.857 252.892Z" fill="white"/>
<path d="M286.019 259.127H263.496V267.019H286.019V259.127Z" fill="white"/>
<path d="M271.397 248.398H263.496V267.019H271.397V248.398Z" fill="white"/>
<path d="M462.433 218.795C462.18 218.795 461.955 218.823 461.73 218.851C460.802 216.548 458.552 214.919 455.909 214.919C453.716 214.919 451.804 216.042 450.679 217.727C450.482 217.699 450.286 217.671 450.089 217.671C448.036 217.671 446.349 219.244 446.152 221.238C444.268 221.547 442.834 223.176 442.834 225.114C442.834 227.277 444.606 229.046 446.771 229.046H448.036C448.036 229.018 448.036 228.962 448.036 228.934C448.036 228.428 448.092 227.923 448.205 227.417L448.402 226.546L449.555 226.715L449.639 226.518L448.711 225.816L449.189 225.058C449.751 224.215 450.454 223.513 451.298 222.951L452.057 222.474L452.76 223.401L452.957 223.317L452.788 222.137L453.66 221.94C454.138 221.828 454.644 221.772 455.15 221.772C455.656 221.772 456.162 221.828 456.668 221.94L457.54 222.137L457.371 223.288L457.568 223.373L458.271 222.446L459.03 222.923C459.874 223.485 460.577 224.187 461.139 225.03L461.617 225.788L460.689 226.49L460.774 226.687L461.955 226.518L462.151 227.389C462.264 227.867 462.32 228.372 462.32 228.878C462.32 228.906 462.32 228.962 462.32 228.99H462.405C465.245 228.99 467.55 226.687 467.55 223.85C467.578 221.098 465.273 218.795 462.433 218.795Z" fill="white"/>
<path d="M457.624 229.046L458.552 228.99C458.552 228.541 458.468 228.091 458.299 227.67L457.428 227.979L457.203 227.642L456.978 227.305L457.596 226.603C457.287 226.266 456.893 226.013 456.5 225.844L456.078 226.687L455.684 226.603L455.291 226.518L455.234 225.592C454.784 225.592 454.335 225.676 453.913 225.844L454.222 226.715L453.885 226.94L453.547 227.164L452.844 226.546C452.507 226.855 452.254 227.249 452.085 227.642L452.929 228.063L452.844 228.456L452.76 228.85L451.832 228.906C451.832 229.355 451.916 229.805 452.085 230.226L452.957 229.917L453.182 230.254L453.407 230.591L452.788 231.293C453.097 231.63 453.491 231.883 453.885 232.051L454.306 231.209L454.7 231.293L455.094 231.377L455.15 232.304C455.6 232.304 456.05 232.22 456.472 232.051L456.162 231.181L456.5 230.956L456.837 230.731L457.54 231.349C457.877 231.04 458.131 230.647 458.299 230.254L457.456 229.833L457.54 229.439L457.624 229.046ZM455.516 230.507C454.672 230.675 453.857 230.113 453.688 229.271C453.519 228.428 454.082 227.614 454.925 227.445C455.769 227.277 456.584 227.838 456.753 228.681C456.921 229.524 456.359 230.338 455.516 230.507ZM459.93 227.024L459.593 226.238L460.408 225.62C459.93 224.889 459.312 224.271 458.58 223.794L457.962 224.609L457.175 224.271L456.387 223.934L456.528 222.923C456.106 222.839 455.684 222.783 455.234 222.783C454.784 222.783 454.363 222.839 453.941 222.923L454.082 223.934L453.294 224.271L452.507 224.609L451.888 223.794C451.157 224.271 450.539 224.889 450.061 225.62L450.876 226.238L450.539 227.024L450.201 227.81L449.189 227.67C449.105 228.091 449.048 228.513 449.048 228.962C449.048 229.411 449.105 229.833 449.189 230.254L450.201 230.113L450.539 230.9L450.876 231.686L450.061 232.304C450.539 233.035 451.157 233.652 451.888 234.13L452.507 233.315L453.294 233.652L454.082 233.989L453.941 235.001C454.363 235.085 454.784 235.141 455.234 235.141C455.684 235.141 456.106 235.085 456.528 235.001L456.387 233.989L457.175 233.652L457.962 233.315L458.58 234.13C459.312 233.652 459.93 233.035 460.408 232.304L459.593 231.686L459.93 230.9L460.268 230.113L461.28 230.254C461.364 229.833 461.42 229.411 461.42 228.962C461.42 228.513 461.364 228.091 461.28 227.67L460.268 227.81L459.93 227.024ZM455.206 232.782C453.097 232.782 451.382 231.068 451.382 228.962C451.382 226.855 453.097 225.142 455.206 225.142C457.315 225.142 459.03 226.855 459.03 228.962C459.03 231.068 457.315 232.782 455.206 232.782ZM455.347 229.58C455.009 229.636 454.672 229.411 454.588 229.074C454.531 228.737 454.756 228.4 455.094 228.316C455.431 228.26 455.769 228.484 455.853 228.822C455.909 229.187 455.684 229.524 455.347 229.58Z" fill="white"/>
<path d="M385.979 269.716H367.027L364.525 265.98H352.012V269.716V271.373V275.277V297.24C352.012 298.645 353.165 299.796 354.571 299.796H383.448C384.854 299.796 386.007 298.645 386.007 297.24V275.277V269.716H385.979ZM353.784 268.199L354.599 267.384L355.893 268.676L357.186 267.384L358.001 268.199L356.708 269.491L358.001 270.783L357.186 271.597L355.893 270.305L354.599 271.597L353.784 270.783L355.077 269.491L353.784 268.199ZM384.039 275.277V297.24C384.039 297.549 383.758 297.83 383.448 297.83H354.571C354.262 297.83 353.981 297.549 353.981 297.24V275.277H384.039Z" fill="white"/>
<path d="M360.251 289.826H356.286V296.005H360.251V289.826Z" fill="white"/>
<path d="M367.477 286.09H363.513V296.005H367.477V286.09Z" fill="white"/>
<path d="M374.732 280.136H370.767V295.977H374.732V280.136Z" fill="white"/>
<path d="M381.958 286.09H377.994V296.005H381.958V286.09Z" fill="white"/>
</g>
<defs>
<clipPath id="clip0_29_433">
<rect width="624" height="336" fill="white"/>
</clipPath>
</defs>
</svg>
