<?xml version="1.0" encoding="utf-8"?>
<!-- Generator: Adobe Illustrator 16.0.0, SVG Export Plug-In . SVG Version: 6.00 Build 0)  -->
<!DOCTYPE svg PUBLIC "-//W3C//DTD SVG 1.1//EN" "http://www.w3.org/Graphics/SVG/1.1/DTD/svg11.dtd">
<svg version="1.1" id="Layer_1" xmlns="http://www.w3.org/2000/svg" xmlns:xlink="http://www.w3.org/1999/xlink" x="0px" y="0px"
	 width="29.1px" height="32.37px" viewBox="0 0 29.1 32.37" enable-background="new 0 0 29.1 32.37" xml:space="preserve">
<path fill="#EA2035" d="M28.31,6.962c-1.945-5.343-7.853-8.099-13.196-6.153l-8.271,3.01c-5.344,1.945-7.983,7.629-6.039,12.973
	c0.52,1.428,1.578,3.359,2.545,4.831l6.163,10.562h0.127l0,0c0.009-0.14,0.022-0.29,0.04-0.448c0.004-0.038,0.01-0.08,0.015-0.12
	c0.015-0.126,0.032-0.255,0.052-0.392c0.006-0.041,0.014-0.086,0.02-0.128c0.023-0.147,0.05-0.298,0.08-0.453
	c0.006-0.032,0.013-0.065,0.019-0.099c0.037-0.188,0.078-0.381,0.125-0.579c0-0.003,0.001-0.005,0.002-0.007
	c0.203-0.861,0.5-1.814,0.912-2.775l0,0c0.577-1.345,1.263-2.582,2.357-3.723c0.826-1.02,8.896-3.303,8.896-3.303
	C27.5,18.213,30.255,12.305,28.31,6.962z M20.927,16.78c0,0-8.54,2.711-9.727,3.785c-0.583,0.552-1.863,2.476-2.113,4.275
	c0,0-4.679-8.12-5.02-9.056c-1.266-3.478,0.527-7.322,4.005-8.588l8.271-3.011c3.478-1.266,7.323,0.527,8.588,4.005
	C26.197,11.67,24.404,15.514,20.927,16.78z"/>
</svg>
